<svg xmlns="http://www.w3.org/2000/svg" xmlns:xlink="http://www.w3.org/1999/xlink" xmlns:lucid="lucid" width="1412" height="876"><g transform="translate(-220 -160)" lucid:page-tab-id="0_0"><path d="M440 180h852.75v54.87H440z" stroke="#000" stroke-opacity="0" stroke-width="2" fill="#fff" fill-opacity="0"/><use xlink:href="#a" transform="matrix(1,0,0,1,444,184) translate(363.985 25.8925)"/><use xlink:href="#b" transform="matrix(1,0,0,1,444,184) translate(452.785 25.8925)"/><path d="M695.43 233.08H1046.34M695.45 233.08h-1.02M1046.32 233.08h1.03" stroke="#404853" stroke-width="2" fill="none"/><path d="M440 234.87h853.7V260H440z" stroke="#000" stroke-opacity="0" stroke-width="2" fill="#fff" fill-opacity="0"/><use xlink:href="#c" transform="matrix(1,0,0,1,444.0000000000005,238.8736319423499) translate(300.51 17.080000000000002)"/><use xlink:href="#d" transform="matrix(1,0,0,1,444.0000000000005,238.8736319423499) translate(351.40999999999997 17.080000000000002)"/><use xlink:href="#e" transform="matrix(1,0,0,1,444.0000000000005,238.8736319423499) translate(425.26 17.080000000000002)"/><use xlink:href="#f" transform="matrix(1,0,0,1,444.0000000000005,238.8736319423499) translate(442.26 17.080000000000002)"/><use xlink:href="#g" transform="matrix(1,0,0,1,444.0000000000005,238.8736319423499) translate(505.15999999999997 17.080000000000002)"/><use xlink:href="#h" transform="matrix(1,0,0,1,444.0000000000005,238.8736319423499) translate(426.31 41.36)"/><path d="M674.78 320h410.44v200H674.78z" fill="#3e5778"/><path d="M674.78 320h410.44v200H674.78zM674.78 360h410.44M734.78 360v160M910 360v160" stroke="#3d4752" stroke-width="2" fill="none"/><use xlink:href="#i" transform="matrix(1,0,0,1,684.7810656755429,320) translate(172.05 23.6)"/><use xlink:href="#j" transform="matrix(1,0,0,1,679.7810656755429,362.5) translate(13 17.1)"/><use xlink:href="#k" transform="matrix(1,0,0,1,739.7810656755429,362.5) translate(76.025 17.1)"/><use xlink:href="#l" transform="matrix(1,0,0,1,915,362.5) translate(73.525 17.1)"/><use xlink:href="#m" transform="matrix(1,0,0,1,739.7810656755429,394.5) translate(60.525 17.1)"/><use xlink:href="#n" transform="matrix(1,0,0,1,915,394.5) translate(61.05 17.1)"/><use xlink:href="#o" transform="matrix(1,0,0,1,739.7810656755429,426.5) translate(61.574999999999996 17.1)"/><use xlink:href="#n" transform="matrix(1,0,0,1,915,426.5) translate(61.05 17.1)"/><use xlink:href="#p" transform="matrix(1,0,0,1,739.7810656755429,458.5) translate(15.574999999999989 17.1)"/><use xlink:href="#n" transform="matrix(1,0,0,1,915,458.5) translate(61.05 17.1)"/><use xlink:href="#q" transform="matrix(1,0,0,1,739.7810656755429,490.5) translate(40.099999999999994 17.1)"/><use xlink:href="#n" transform="matrix(1,0,0,1,915,490.5) translate(61.05 17.1)"/><path d="M1260 320h300v168h-300z" fill="#3e5778"/><path d="M1260 320h300v168h-300zM1260 360h300M1320 360v128M1440 360v128" stroke="#3d4752" stroke-width="2" fill="none"/><use xlink:href="#r" transform="matrix(1,0,0,1,1270,320) translate(117.5 23.6)"/><use xlink:href="#j" transform="matrix(1,0,0,1,1265,362.5) translate(13 17.1)"/><use xlink:href="#k" transform="matrix(1,0,0,1,1325,362.5) translate(48.025 17.1)"/><use xlink:href="#l" transform="matrix(1,0,0,1,1445,362.5) translate(45.525 17.1)"/><use xlink:href="#s" transform="matrix(1,0,0,1,1265,394.5) translate(13.524999999999999 17.1)"/><use xlink:href="#t" transform="matrix(1,0,0,1,1325,394.5) translate(25.549999999999997 17.1)"/><use xlink:href="#l" transform="matrix(1,0,0,1,1445,394.5) translate(45.525 17.1)"/><use xlink:href="#u" transform="matrix(1,0,0,1,1325,426.5) translate(25.5 17.1)"/><use xlink:href="#v" transform="matrix(1,0,0,1,1445,426.5) translate(40.5 17.1)"/><use xlink:href="#w" transform="matrix(1,0,0,1,1325,458.5) translate(28.049999999999997 17.1)"/><use xlink:href="#n" transform="matrix(1,0,0,1,1445,458.5) translate(33.05 17.1)"/><path d="M1220 640h360v168h-360z" fill="#3e5778"/><path d="M1220 640h360v168h-360zM1220 680h360M1280 680v128M1430 680v128" stroke="#3d4752" stroke-width="2" fill="none"/><use xlink:href="#x" transform="matrix(1,0,0,1,1230,640) translate(126.57499999999999 23.6)"/><use xlink:href="#j" transform="matrix(1,0,0,1,1225,682.5) translate(13 17.1)"/><use xlink:href="#k" transform="matrix(1,0,0,1,1285,682.5) translate(63.025 17.1)"/><use xlink:href="#l" transform="matrix(1,0,0,1,1435,682.5) translate(60.525 17.1)"/><use xlink:href="#s" transform="matrix(1,0,0,1,1225,714.5) translate(13.524999999999999 17.1)"/><use xlink:href="#t" transform="matrix(1,0,0,1,1285,714.5) translate(40.55 17.1)"/><use xlink:href="#l" transform="matrix(1,0,0,1,1435,714.5) translate(60.525 17.1)"/><use xlink:href="#s" transform="matrix(1,0,0,1,1225,746.5) translate(13.524999999999999 17.1)"/><use xlink:href="#y" transform="matrix(1,0,0,1,1285,746.5) translate(41.025 17.1)"/><use xlink:href="#l" transform="matrix(1,0,0,1,1435,746.5) translate(60.525 17.1)"/><use xlink:href="#u" transform="matrix(1,0,0,1,1285,778.5) translate(40.5 17.1)"/><use xlink:href="#v" transform="matrix(1,0,0,1,1435,778.5) translate(55.5 17.1)"/><path d="M1106.22 375.8h66.4v32.23H1220" stroke="#404853" stroke-width="2" fill="none"/><path d="M1106.22 385.8v-20M1086.22 375.8h20M1258.55 418.03l-20-10 20-10M1258.55 408.03h-20M1238.55 408.03c0 5.52-4.47 10-10 10-5.52 0-10-4.48-10-10 0-5.53 4.48-10 10-10 5.53 0 10 4.47 10 10" stroke="#404853" stroke-width="2" fill="#fff"/><path d="M1180 728h-27.4V375.8h-46.38" stroke="#404853" stroke-width="2" fill="none"/><path d="M1218.55 738l-20-10 20-10M1218.55 728h-20M1198.55 728c0 5.52-4.47 10-10 10-5.52 0-10-4.48-10-10s4.48-10 10-10c5.53 0 10 4.48 10 10M1106.22 385.8v-20M1086.22 375.8h20" stroke="#404853" stroke-width="2" fill="#fff"/><path d="M240 540h320v168H240z" fill="#3e5778"/><path d="M240 540h320v168H240zM240 580h320M300 580v128M430 580v128" stroke="#3d4752" stroke-width="2" fill="none"/><use xlink:href="#z" transform="matrix(1,0,0,1,250,540) translate(103.6 23.6)"/><use xlink:href="#j" transform="matrix(1,0,0,1,245,582.5) translate(13 17.1)"/><use xlink:href="#k" transform="matrix(1,0,0,1,305,582.5) translate(53.025 17.1)"/><use xlink:href="#l" transform="matrix(1,0,0,1,435,582.5) translate(50.525 17.1)"/><use xlink:href="#s" transform="matrix(1,0,0,1,245,614.5) translate(13.524999999999999 17.1)"/><use xlink:href="#A" transform="matrix(1,0,0,1,305,614.5) translate(10.074999999999996 17.1)"/><use xlink:href="#l" transform="matrix(1,0,0,1,435,614.5) translate(50.525 17.1)"/><use xlink:href="#s" transform="matrix(1,0,0,1,245,646.5) translate(13.524999999999999 17.1)"/><use xlink:href="#B" transform="matrix(1,0,0,1,305,646.5) translate(8.049999999999997 17.1)"/><use xlink:href="#l" transform="matrix(1,0,0,1,435,646.5) translate(50.525 17.1)"/><use xlink:href="#C" transform="matrix(1,0,0,1,305,678.5) translate(36 17.1)"/><use xlink:href="#D" transform="matrix(1,0,0,1,435,678.5) translate(28.025 17.1)"/><path d="M653.78 375.8h-36.4V628H600" stroke="#404853" stroke-width="2" fill="none"/><path d="M653.78 365.8v20M673.78 375.8h-20M561.45 618.02l20 10-20 10M561.45 628.02h20M601.45 628.02c0 5.53-4.48 10-10 10-5.53 0-10-4.47-10-10 0-5.52 4.47-10 10-10 5.52 0 10 4.48 10 10" stroke="#404853" stroke-width="2" fill="#fff"/><path d="M653.78 375.8h-36.4v284.43H600" stroke="#404853" stroke-width="2" fill="none"/><path d="M653.78 365.8v20M673.78 375.8h-20M561.45 650.23l20 10-20 10M561.45 660.23h20M601.45 660.23c0 5.52-4.48 10-10 10-5.53 0-10-4.48-10-10 0-5.53 4.47-10 10-10 5.52 0 10 4.47 10 10" stroke="#404853" stroke-width="2" fill="#fff"/><path d="M440 800h320v136H440z" fill="#3e5778"/><path d="M440 800h320v136H440zM440 840h320M500 840v96M630 840v96" stroke="#3d4752" stroke-width="2" fill="none"/><use xlink:href="#E" transform="matrix(1,0,0,1,450.0000000000005,800) translate(101.525 23.6)"/><use xlink:href="#j" transform="matrix(1,0,0,1,445.0000000000005,842.5) translate(13 17.1)"/><use xlink:href="#k" transform="matrix(1,0,0,1,505.0000000000005,842.5) translate(53.025 17.1)"/><use xlink:href="#l" transform="matrix(1,0,0,1,635.0000000000005,842.5) translate(50.525 17.1)"/><use xlink:href="#s" transform="matrix(1,0,0,1,445.0000000000005,874.5) translate(13.524999999999999 17.1)"/><use xlink:href="#t" transform="matrix(1,0,0,1,505.0000000000005,874.5) translate(30.549999999999997 17.1)"/><use xlink:href="#l" transform="matrix(1,0,0,1,635.0000000000005,874.5) translate(50.525 17.1)"/><use xlink:href="#s" transform="matrix(1,0,0,1,445.0000000000005,906.5) translate(13.524999999999999 17.1)"/><use xlink:href="#y" transform="matrix(1,0,0,1,505.0000000000005,906.5) translate(31.025 17.1)"/><use xlink:href="#l" transform="matrix(1,0,0,1,635.0000000000005,906.5) translate(50.525 17.1)"/><path d="M653.78 375.8h-20V660H801v228h-1" stroke="#404853" stroke-width="2" fill="none"/><path d="M653.78 365.8v20M673.78 375.8h-20M771 898v-20M761 888h20M801 888c0 5.52-4.48 10-10 10s-10-4.48-10-10 4.48-10 10-10 10 4.48 10 10" stroke="#404853" stroke-width="2" fill="#fff"/><path d="M1581 375.8h40V760h-1" stroke="#404853" stroke-width="2" fill="none"/><path d="M1581 385.8v-20M1561 375.8h20M1581.45 750l20 10-20 10M1581.45 760h20M1621.45 760c0 5.52-4.48 10-10 10-5.53 0-10-4.48-10-10s4.47-10 10-10c5.52 0 10 4.48 10 10" stroke="#404853" stroke-width="2" fill="#fff"/><path d="M1239 375.8h-44.5V340H1130v320H975.5v260H800" stroke="#404853" stroke-width="2" fill="none"/><path d="M1239 365.8v20M1259 375.8h-20M761.45 910l20 10-20 10M761.45 920h20M801.45 920c0 5.52-4.48 10-10 10-5.53 0-10-4.48-10-10s4.47-10 10-10c5.52 0 10 4.48 10 10" stroke="#404853" stroke-width="2" fill="#fff"/><path d="M1140 880h320v136h-320z" fill="#3e5778"/><path d="M1140 880h320v136h-320zM1140 920h320M1200 920v96M1330 920v96" stroke="#3d4752" stroke-width="2" fill="none"/><use xlink:href="#F" transform="matrix(1,0,0,1,1150,880) translate(80.6 23.6)"/><use xlink:href="#j" transform="matrix(1,0,0,1,1145,922.5) translate(13 17.1)"/><use xlink:href="#k" transform="matrix(1,0,0,1,1205,922.5) translate(53.025 17.1)"/><use xlink:href="#l" transform="matrix(1,0,0,1,1335,922.5) translate(50.525 17.1)"/><use xlink:href="#s" transform="matrix(1,0,0,1,1145,954.5) translate(13.524999999999999 17.1)"/><use xlink:href="#t" transform="matrix(1,0,0,1,1205,954.5) translate(30.549999999999997 17.1)"/><use xlink:href="#l" transform="matrix(1,0,0,1,1335,954.5) translate(50.525 17.1)"/><use xlink:href="#s" transform="matrix(1,0,0,1,1145,986.5) translate(13.524999999999999 17.1)"/><use xlink:href="#G" transform="matrix(1,0,0,1,1205,986.5) translate(11.074999999999996 17.1)"/><use xlink:href="#l" transform="matrix(1,0,0,1,1335,986.5) translate(50.525 17.1)"/><path d="M653.78 375.8h-20V580H930v388.13h170" stroke="#404853" stroke-width="2" fill="none"/><path d="M653.78 365.8v20M673.78 375.8h-20M1129 958.13v20M1139 968.13h-20M1119 968.13c0 5.52-4.48 10-10 10s-10-4.48-10-10c0-5.53 4.48-10 10-10s10 4.47 10 10" stroke="#404853" stroke-width="2" fill="#fff"/><path d="M1199 696h-100v304.33h21.18" stroke="#404853" stroke-width="2" fill="none"/><path d="M1199 686v20M1219 696h-20M1138.55 1010.33l-20-10 20-10M1138.55 1000.33h-20" stroke="#404853" stroke-width="2" fill="#fff"/><defs><path fill="#fff" d="M76-208v77h127v40H76V0H24v-248h183v40H76" id="H"/><path fill="#fff" d="M133-34C117-15 103 5 69 4 32 3 11-16 11-54c-1-60 55-63 116-61 1-26-3-47-28-47-18 1-26 9-28 27l-52-2c7-38 36-58 82-57s74 22 75 68l1 82c-1 14 12 18 25 15v27c-30 8-71 5-69-32zm-48 3c29 0 43-24 42-57-32 0-66-3-65 30 0 17 8 27 23 27" id="I"/><path fill="#fff" d="M147 0L96-86 75-71V0H25v-261h50v150l67-79h53l-66 74L201 0h-54" id="J"/><path fill="#fff" d="M185-48c-13 30-37 53-82 52C43 2 14-33 14-96s30-98 90-98c62 0 83 45 84 108H66c0 31 8 55 39 56 18 0 30-7 34-22zm-45-69c5-46-57-63-70-21-2 6-4 13-4 21h74" id="K"/><path fill="#fff" d="M135-194c52 0 70 43 70 98 0 56-19 99-73 100-30 1-46-15-58-35L72 0H24l1-261h50v104c11-23 29-37 60-37zM114-30c31 0 40-27 40-66 0-37-7-63-39-63s-41 28-41 65c0 36 8 64 40 64" id="L"/><path fill="#fff" d="M110-194c64 0 96 36 96 99 0 64-35 99-97 99-61 0-95-36-95-99 0-62 34-99 96-99zm-1 164c35 0 45-28 45-65 0-40-10-65-43-65-34 0-45 26-45 65 0 36 10 65 43 65" id="M"/><g id="a"><use transform="matrix(0.05,0,0,0.05,0,0)" xlink:href="#H"/><use transform="matrix(0.05,0,0,0.05,10.950000000000001,0)" xlink:href="#I"/><use transform="matrix(0.05,0,0,0.05,20.950000000000003,0)" xlink:href="#J"/><use transform="matrix(0.05,0,0,0.05,30.950000000000003,0)" xlink:href="#K"/><use transform="matrix(0.05,0,0,0.05,40.95,0)" xlink:href="#L"/><use transform="matrix(0.05,0,0,0.05,51.900000000000006,0)" xlink:href="#M"/><use transform="matrix(0.05,0,0,0.05,62.85,0)" xlink:href="#M"/><use transform="matrix(0.05,0,0,0.05,73.80000000000001,0)" xlink:href="#J"/></g><path fill="#fff" d="M199 0l-22-63H83L61 0H9l90-248h61L250 0h-51zm-33-102l-36-108c-10 38-24 72-36 108h72" id="N"/><path fill="#fff" d="M135-194c53 0 70 44 70 98 0 56-19 98-73 100-31 1-45-17-59-34 3 33 2 69 2 105H25l-1-265h48c2 10 0 23 3 31 11-24 29-35 60-35zM114-30c33 0 39-31 40-66 0-38-9-64-40-64-56 0-55 130 0 130" id="O"/><g id="b"><use transform="matrix(0.05,0,0,0.05,0,0)" xlink:href="#N"/><use transform="matrix(0.05,0,0,0.05,12.950000000000001,0)" xlink:href="#O"/><use transform="matrix(0.05,0,0,0.05,23.900000000000002,0)" xlink:href="#O"/></g><path fill="#fff" d="M30-248c118-7 216 8 213 122C240-48 200 0 122 0H30v-248zM63-27c89 8 146-16 146-99s-60-101-146-95v194" id="P"/><path fill="#fff" d="M141-36C126-15 110 5 73 4 37 3 15-17 15-53c-1-64 63-63 125-63 3-35-9-54-41-54-24 1-41 7-42 31l-33-3c5-37 33-52 76-52 45 0 72 20 72 64v82c-1 20 7 32 28 27v20c-31 9-61-2-59-35zM48-53c0 20 12 33 32 33 41-3 63-29 60-74-43 2-92-5-92 41" id="Q"/><path fill="#fff" d="M108 0H70L1-190h34L89-25l56-165h34" id="R"/><path fill="#fff" d="M24-231v-30h32v30H24zM24 0v-190h32V0H24" id="S"/><path fill="#fff" d="M85-194c31 0 48 13 60 33l-1-100h32l1 261h-30c-2-10 0-23-3-31C134-8 116 4 85 4 32 4 16-35 15-94c0-66 23-100 70-100zm9 24c-40 0-46 34-46 75 0 40 6 74 45 74 42 0 51-32 51-76 0-42-9-74-50-73" id="T"/><g id="c"><use transform="matrix(0.05,0,0,0.05,0,0)" xlink:href="#P"/><use transform="matrix(0.05,0,0,0.05,12.950000000000001,0)" xlink:href="#Q"/><use transform="matrix(0.05,0,0,0.05,22.950000000000003,0)" xlink:href="#R"/><use transform="matrix(0.05,0,0,0.05,31.950000000000003,0)" xlink:href="#S"/><use transform="matrix(0.05,0,0,0.05,35.900000000000006,0)" xlink:href="#T"/></g><path fill="#fff" d="M240 0l2-218c-23 76-54 145-80 218h-23L58-218 59 0H30v-248h44l77 211c21-75 51-140 76-211h43V0h-30" id="U"/><path fill="#fff" d="M114-163C36-179 61-72 57 0H25l-1-190h30c1 12-1 29 2 39 6-27 23-49 58-41v29" id="V"/><path fill="#fff" d="M59-47c-2 24 18 29 38 22v24C64 9 27 4 27-40v-127H5v-23h24l9-43h21v43h35v23H59v120" id="W"/><path fill="#fff" d="M117-194c89-4 53 116 60 194h-32v-121c0-31-8-49-39-48C34-167 62-67 57 0H25l-1-190h30c1 10-1 24 2 32 11-22 29-35 61-36" id="X"/><path fill="#fff" d="M100-194c63 0 86 42 84 106H49c0 40 14 67 53 68 26 1 43-12 49-29l28 8c-11 28-37 45-77 45C44 4 14-33 15-96c1-61 26-98 85-98zm52 81c6-60-76-77-97-28-3 7-6 17-6 28h103" id="Y"/><path fill="#fff" d="M9 0v-24l116-142H16v-24h144v24L44-24h123V0H9" id="Z"/><g id="d"><use transform="matrix(0.05,0,0,0.05,0,0)" xlink:href="#U"/><use transform="matrix(0.05,0,0,0.05,14.950000000000001,0)" xlink:href="#Q"/><use transform="matrix(0.05,0,0,0.05,24.950000000000003,0)" xlink:href="#V"/><use transform="matrix(0.05,0,0,0.05,30.900000000000002,0)" xlink:href="#W"/><use transform="matrix(0.05,0,0,0.05,35.900000000000006,0)" xlink:href="#S"/><use transform="matrix(0.05,0,0,0.05,39.85000000000001,0)" xlink:href="#X"/><use transform="matrix(0.05,0,0,0.05,49.85000000000001,0)" xlink:href="#Y"/><use transform="matrix(0.05,0,0,0.05,59.85,0)" xlink:href="#Z"/></g><path fill="#fff" d="M234-2c-28 10-62 0-77-18C117 19 8 12 13-65c3-43 29-61 60-76-25-40-17-114 47-108 35 3 59 15 59 50 0 44-40 53-71 69 14 26 32 50 51 72 14-21 24-43 30-72l26 8c-9 33-21 57-38 82 13 13 33 22 57 15v23zM97-151c25-10 52-18 56-48-1-18-13-29-33-29-42 0-39 50-23 77zM42-66c-3 51 71 58 98 28-20-24-41-51-56-80-23 10-40 24-42 52" id="aa"/><use transform="matrix(0.05,0,0,0.05,0,0)" xlink:href="#aa" id="e"/><path fill="#fff" d="M205 0l-28-72H64L36 0H1l101-248h38L239 0h-34zm-38-99l-47-123c-12 45-31 82-46 123h93" id="ab"/><path fill="#fff" d="M24 0v-261h32V0H24" id="ac"/><path fill="#fff" d="M135-143c-3-34-86-38-87 0 15 53 115 12 119 90S17 21 10-45l28-5c4 36 97 45 98 0-10-56-113-15-118-90-4-57 82-63 122-42 12 7 21 19 24 35" id="ad"/><path fill="#fff" d="M100-194c62-1 85 37 85 99 1 63-27 99-86 99S16-35 15-95c0-66 28-99 85-99zM99-20c44 1 53-31 53-75 0-43-8-75-51-75s-53 32-53 75 10 74 51 75" id="ae"/><g id="f"><use transform="matrix(0.05,0,0,0.05,0,0)" xlink:href="#ab"/><use transform="matrix(0.05,0,0,0.05,12,0)" xlink:href="#ac"/><use transform="matrix(0.05,0,0,0.05,15.949999999999998,0)" xlink:href="#S"/><use transform="matrix(0.05,0,0,0.05,19.9,0)" xlink:href="#ad"/><use transform="matrix(0.05,0,0,0.05,28.899999999999995,0)" xlink:href="#ad"/><use transform="matrix(0.05,0,0,0.05,37.9,0)" xlink:href="#ae"/><use transform="matrix(0.05,0,0,0.05,47.9,0)" xlink:href="#X"/></g><path fill="#fff" d="M30-248c87 1 191-15 191 75 0 78-77 80-158 76V0H30v-248zm33 125c57 0 124 11 124-50 0-59-68-47-124-48v98" id="af"/><g id="g"><use transform="matrix(0.05,0,0,0.05,0,0)" xlink:href="#af"/><use transform="matrix(0.05,0,0,0.05,12,0)" xlink:href="#Y"/><use transform="matrix(0.05,0,0,0.05,22,0)" xlink:href="#V"/><use transform="matrix(0.05,0,0,0.05,27.950000000000003,0)" xlink:href="#Y"/><use transform="matrix(0.05,0,0,0.05,37.95,0)" xlink:href="#ad"/></g><path fill="#fff" d="M232-93c-1 65-40 97-104 97C67 4 28-28 28-90v-158h33c8 89-33 224 67 224 102 0 64-133 71-224h33v155" id="ag"/><g id="i"><use transform="matrix(0.05,0,0,0.05,0,0)" xlink:href="#ag"/><use transform="matrix(0.05,0,0,0.05,12.950000000000001,0)" xlink:href="#ad"/><use transform="matrix(0.05,0,0,0.05,21.950000000000003,0)" xlink:href="#Y"/><use transform="matrix(0.05,0,0,0.05,31.950000000000003,0)" xlink:href="#V"/><use transform="matrix(0.05,0,0,0.05,37.900000000000006,0)" xlink:href="#ad"/></g><path fill="#fff" d="M194 0L95-120 63-95V0H30v-248h33v124l119-124h40L117-140 236 0h-42" id="ah"/><g id="j"><use transform="matrix(0.05,0,0,0.05,0,0)" xlink:href="#af"/><use transform="matrix(0.05,0,0,0.05,12,0)" xlink:href="#ah"/></g><g id="k"><use transform="matrix(0.05,0,0,0.05,0,0)" xlink:href="#S"/><use transform="matrix(0.05,0,0,0.05,3.95,0)" xlink:href="#T"/></g><g id="l"><use transform="matrix(0.05,0,0,0.05,0,0)" xlink:href="#S"/><use transform="matrix(0.05,0,0,0.05,3.95,0)" xlink:href="#X"/><use transform="matrix(0.05,0,0,0.05,13.949999999999998,0)" xlink:href="#W"/></g><path fill="#fff" d="M210-169c-67 3-38 105-44 169h-31v-121c0-29-5-50-35-48C34-165 62-65 56 0H25l-1-190h30c1 10-1 24 2 32 10-44 99-50 107 0 11-21 27-35 58-36 85-2 47 119 55 194h-31v-121c0-29-5-49-35-48" id="ai"/><g id="m"><use transform="matrix(0.05,0,0,0.05,0,0)" xlink:href="#X"/><use transform="matrix(0.05,0,0,0.05,10,0)" xlink:href="#Q"/><use transform="matrix(0.05,0,0,0.05,20,0)" xlink:href="#ai"/><use transform="matrix(0.05,0,0,0.05,34.95,0)" xlink:href="#Y"/></g><path fill="#fff" d="M177-190C167-65 218 103 67 71c-23-6-38-20-44-43l32-5c15 47 100 32 89-28v-30C133-14 115 1 83 1 29 1 15-40 15-95c0-56 16-97 71-98 29-1 48 16 59 35 1-10 0-23 2-32h30zM94-22c36 0 50-32 50-73 0-42-14-75-50-75-39 0-46 34-46 75s6 73 46 73" id="aj"/><g id="n"><use transform="matrix(0.05,0,0,0.05,0,0)" xlink:href="#ad"/><use transform="matrix(0.05,0,0,0.05,9,0)" xlink:href="#W"/><use transform="matrix(0.05,0,0,0.05,14,0)" xlink:href="#V"/><use transform="matrix(0.05,0,0,0.05,19.95,0)" xlink:href="#S"/><use transform="matrix(0.05,0,0,0.05,23.9,0)" xlink:href="#X"/><use transform="matrix(0.05,0,0,0.05,33.9,0)" xlink:href="#aj"/></g><g id="o"><use transform="matrix(0.05,0,0,0.05,0,0)" xlink:href="#Y"/><use transform="matrix(0.05,0,0,0.05,10,0)" xlink:href="#ai"/><use transform="matrix(0.05,0,0,0.05,24.950000000000003,0)" xlink:href="#Q"/><use transform="matrix(0.05,0,0,0.05,34.95,0)" xlink:href="#S"/><use transform="matrix(0.05,0,0,0.05,38.900000000000006,0)" xlink:href="#ac"/></g><path fill="#fff" d="M115-194c55 1 70 41 70 98S169 2 115 4C84 4 66-9 55-30l1 105H24l-1-265h31l2 30c10-21 28-34 59-34zm-8 174c40 0 45-34 45-75s-6-73-45-74c-42 0-51 32-51 76 0 43 10 73 51 73" id="ak"/><path fill="#fff" d="M206 0h-36l-40-164L89 0H53L-1-190h32L70-26l43-164h34l41 164 42-164h31" id="al"/><path fill="#fff" d="M-5 72V49h209v23H-5" id="am"/><g id="p"><use transform="matrix(0.05,0,0,0.05,0,0)" xlink:href="#ak"/><use transform="matrix(0.05,0,0,0.05,10,0)" xlink:href="#Q"/><use transform="matrix(0.05,0,0,0.05,20,0)" xlink:href="#ad"/><use transform="matrix(0.05,0,0,0.05,29,0)" xlink:href="#ad"/><use transform="matrix(0.05,0,0,0.05,38,0)" xlink:href="#al"/><use transform="matrix(0.05,0,0,0.05,50.95,0)" xlink:href="#ae"/><use transform="matrix(0.05,0,0,0.05,60.95,0)" xlink:href="#V"/><use transform="matrix(0.05,0,0,0.05,66.9,0)" xlink:href="#T"/><use transform="matrix(0.05,0,0,0.05,76.9,0)" xlink:href="#am"/><use transform="matrix(0.05,0,0,0.05,86.9,0)" xlink:href="#T"/><use transform="matrix(0.05,0,0,0.05,96.9,0)" xlink:href="#S"/><use transform="matrix(0.05,0,0,0.05,100.85000000000001,0)" xlink:href="#aj"/><use transform="matrix(0.05,0,0,0.05,110.85000000000001,0)" xlink:href="#Y"/><use transform="matrix(0.05,0,0,0.05,120.85000000000001,0)" xlink:href="#ad"/><use transform="matrix(0.05,0,0,0.05,129.85000000000002,0)" xlink:href="#W"/></g><path fill="#fff" d="M143 0L79-87 56-68V0H24v-261h32v163l83-92h37l-77 82L181 0h-38" id="an"/><g id="q"><use transform="matrix(0.05,0,0,0.05,0,0)" xlink:href="#S"/><use transform="matrix(0.05,0,0,0.05,3.95,0)" xlink:href="#ai"/><use transform="matrix(0.05,0,0,0.05,18.900000000000002,0)" xlink:href="#Q"/><use transform="matrix(0.05,0,0,0.05,28.900000000000002,0)" xlink:href="#aj"/><use transform="matrix(0.05,0,0,0.05,38.900000000000006,0)" xlink:href="#Y"/><use transform="matrix(0.05,0,0,0.05,48.900000000000006,0)" xlink:href="#am"/><use transform="matrix(0.05,0,0,0.05,58.900000000000006,0)" xlink:href="#ac"/><use transform="matrix(0.05,0,0,0.05,62.85,0)" xlink:href="#S"/><use transform="matrix(0.05,0,0,0.05,66.80000000000001,0)" xlink:href="#X"/><use transform="matrix(0.05,0,0,0.05,76.80000000000001,0)" xlink:href="#an"/></g><g id="r"><use transform="matrix(0.05,0,0,0.05,0,0)" xlink:href="#af"/><use transform="matrix(0.05,0,0,0.05,12,0)" xlink:href="#ae"/><use transform="matrix(0.05,0,0,0.05,22,0)" xlink:href="#ad"/><use transform="matrix(0.05,0,0,0.05,31,0)" xlink:href="#W"/><use transform="matrix(0.05,0,0,0.05,36,0)" xlink:href="#ad"/></g><path fill="#fff" d="M63-220v92h138v28H63V0H30v-248h175v28H63" id="ao"/><g id="s"><use transform="matrix(0.05,0,0,0.05,0,0)" xlink:href="#ao"/><use transform="matrix(0.05,0,0,0.05,10.950000000000001,0)" xlink:href="#ah"/></g><path fill="#fff" d="M84 4C-5 8 30-112 23-190h32v120c0 31 7 50 39 49 72-2 45-101 50-169h31l1 190h-30c-1-10 1-25-2-33-11 22-28 36-60 37" id="ap"/><g id="t"><use transform="matrix(0.05,0,0,0.05,0,0)" xlink:href="#ap"/><use transform="matrix(0.05,0,0,0.05,10,0)" xlink:href="#ad"/><use transform="matrix(0.05,0,0,0.05,19,0)" xlink:href="#Y"/><use transform="matrix(0.05,0,0,0.05,29,0)" xlink:href="#V"/><use transform="matrix(0.05,0,0,0.05,34.95,0)" xlink:href="#am"/><use transform="matrix(0.05,0,0,0.05,44.95,0)" xlink:href="#S"/><use transform="matrix(0.05,0,0,0.05,48.900000000000006,0)" xlink:href="#T"/></g><path fill="#fff" d="M96-169c-40 0-48 33-48 73s9 75 48 75c24 0 41-14 43-38l32 2c-6 37-31 61-74 61-59 0-76-41-82-99-10-93 101-131 147-64 4 7 5 14 7 22l-32 3c-4-21-16-35-41-35" id="aq"/><g id="u"><use transform="matrix(0.05,0,0,0.05,0,0)" xlink:href="#aq"/><use transform="matrix(0.05,0,0,0.05,9,0)" xlink:href="#ae"/><use transform="matrix(0.05,0,0,0.05,19,0)" xlink:href="#X"/><use transform="matrix(0.05,0,0,0.05,29,0)" xlink:href="#W"/><use transform="matrix(0.05,0,0,0.05,34,0)" xlink:href="#Y"/><use transform="matrix(0.05,0,0,0.05,44,0)" xlink:href="#X"/><use transform="matrix(0.05,0,0,0.05,54,0)" xlink:href="#W"/></g><path fill="#fff" d="M141 0L90-78 38 0H4l68-98-65-92h35l48 74 47-74h35l-64 92 68 98h-35" id="ar"/><g id="v"><use transform="matrix(0.05,0,0,0.05,0,0)" xlink:href="#W"/><use transform="matrix(0.05,0,0,0.05,5,0)" xlink:href="#Y"/><use transform="matrix(0.05,0,0,0.05,15,0)" xlink:href="#ar"/><use transform="matrix(0.05,0,0,0.05,24,0)" xlink:href="#W"/></g><g id="w"><use transform="matrix(0.05,0,0,0.05,0,0)" xlink:href="#ak"/><use transform="matrix(0.05,0,0,0.05,10,0)" xlink:href="#S"/><use transform="matrix(0.05,0,0,0.05,13.949999999999998,0)" xlink:href="#aq"/><use transform="matrix(0.05,0,0,0.05,22.95,0)" xlink:href="#W"/><use transform="matrix(0.05,0,0,0.05,27.950000000000003,0)" xlink:href="#ap"/><use transform="matrix(0.05,0,0,0.05,37.95,0)" xlink:href="#V"/><use transform="matrix(0.05,0,0,0.05,43.900000000000006,0)" xlink:href="#Y"/></g><path fill="#fff" d="M212-179c-10-28-35-45-73-45-59 0-87 40-87 99 0 60 29 101 89 101 43 0 62-24 78-52l27 14C228-24 195 4 139 4 59 4 22-46 18-125c-6-104 99-153 187-111 19 9 31 26 39 46" id="as"/><g id="x"><use transform="matrix(0.05,0,0,0.05,0,0)" xlink:href="#as"/><use transform="matrix(0.05,0,0,0.05,12.950000000000001,0)" xlink:href="#ae"/><use transform="matrix(0.05,0,0,0.05,22.950000000000003,0)" xlink:href="#ai"/><use transform="matrix(0.05,0,0,0.05,37.900000000000006,0)" xlink:href="#ai"/><use transform="matrix(0.05,0,0,0.05,52.85,0)" xlink:href="#Y"/><use transform="matrix(0.05,0,0,0.05,62.85,0)" xlink:href="#X"/><use transform="matrix(0.05,0,0,0.05,72.85000000000001,0)" xlink:href="#W"/><use transform="matrix(0.05,0,0,0.05,77.85000000000001,0)" xlink:href="#ad"/></g><g id="y"><use transform="matrix(0.05,0,0,0.05,0,0)" xlink:href="#ak"/><use transform="matrix(0.05,0,0,0.05,10,0)" xlink:href="#ae"/><use transform="matrix(0.05,0,0,0.05,20,0)" xlink:href="#ad"/><use transform="matrix(0.05,0,0,0.05,29,0)" xlink:href="#W"/><use transform="matrix(0.05,0,0,0.05,34,0)" xlink:href="#am"/><use transform="matrix(0.05,0,0,0.05,44,0)" xlink:href="#S"/><use transform="matrix(0.05,0,0,0.05,47.95,0)" xlink:href="#T"/></g><path fill="#fff" d="M106-169C34-169 62-67 57 0H25v-261h32l-1 103c12-21 28-36 61-36 89 0 53 116 60 194h-32v-121c2-32-8-49-39-48" id="at"/><g id="z"><use transform="matrix(0.05,0,0,0.05,0,0)" xlink:href="#ao"/><use transform="matrix(0.05,0,0,0.05,10.950000000000001,0)" xlink:href="#V"/><use transform="matrix(0.05,0,0,0.05,16.900000000000002,0)" xlink:href="#S"/><use transform="matrix(0.05,0,0,0.05,20.85,0)" xlink:href="#Y"/><use transform="matrix(0.05,0,0,0.05,30.85,0)" xlink:href="#X"/><use transform="matrix(0.05,0,0,0.05,40.85,0)" xlink:href="#T"/><use transform="matrix(0.05,0,0,0.05,50.85,0)" xlink:href="#ad"/><use transform="matrix(0.05,0,0,0.05,59.85,0)" xlink:href="#at"/><use transform="matrix(0.05,0,0,0.05,69.85,0)" xlink:href="#S"/><use transform="matrix(0.05,0,0,0.05,73.8,0)" xlink:href="#ak"/><use transform="matrix(0.05,0,0,0.05,83.8,0)" xlink:href="#ad"/></g><path fill="#fff" d="M145-31C134-9 116 4 85 4 32 4 16-35 15-94c0-59 17-99 70-100 32-1 48 14 60 33 0-11-1-24 2-32h30l-1 268h-32zM93-21c41 0 51-33 51-76s-8-73-50-73c-40 0-46 35-46 75s5 74 45 74" id="au"/><g id="A"><use transform="matrix(0.05,0,0,0.05,0,0)" xlink:href="#V"/><use transform="matrix(0.05,0,0,0.05,5.95,0)" xlink:href="#Y"/><use transform="matrix(0.05,0,0,0.05,15.949999999999998,0)" xlink:href="#au"/><use transform="matrix(0.05,0,0,0.05,25.950000000000003,0)" xlink:href="#ap"/><use transform="matrix(0.05,0,0,0.05,35.95,0)" xlink:href="#Y"/><use transform="matrix(0.05,0,0,0.05,45.95,0)" xlink:href="#ad"/><use transform="matrix(0.05,0,0,0.05,54.95,0)" xlink:href="#W"/><use transform="matrix(0.05,0,0,0.05,59.95,0)" xlink:href="#Y"/><use transform="matrix(0.05,0,0,0.05,69.95,0)" xlink:href="#V"/><use transform="matrix(0.05,0,0,0.05,75.9,0)" xlink:href="#am"/><use transform="matrix(0.05,0,0,0.05,85.9,0)" xlink:href="#S"/><use transform="matrix(0.05,0,0,0.05,89.85000000000001,0)" xlink:href="#T"/></g><g id="B"><use transform="matrix(0.05,0,0,0.05,0,0)" xlink:href="#V"/><use transform="matrix(0.05,0,0,0.05,5.95,0)" xlink:href="#Y"/><use transform="matrix(0.05,0,0,0.05,15.949999999999998,0)" xlink:href="#au"/><use transform="matrix(0.05,0,0,0.05,25.950000000000003,0)" xlink:href="#ap"/><use transform="matrix(0.05,0,0,0.05,35.95,0)" xlink:href="#Y"/><use transform="matrix(0.05,0,0,0.05,45.95,0)" xlink:href="#ad"/><use transform="matrix(0.05,0,0,0.05,54.95,0)" xlink:href="#W"/><use transform="matrix(0.05,0,0,0.05,59.95,0)" xlink:href="#Y"/><use transform="matrix(0.05,0,0,0.05,69.95,0)" xlink:href="#Y"/><use transform="matrix(0.05,0,0,0.05,79.95,0)" xlink:href="#am"/><use transform="matrix(0.05,0,0,0.05,89.95,0)" xlink:href="#S"/><use transform="matrix(0.05,0,0,0.05,93.9,0)" xlink:href="#T"/></g><g id="C"><use transform="matrix(0.05,0,0,0.05,0,0)" xlink:href="#ad"/><use transform="matrix(0.05,0,0,0.05,9,0)" xlink:href="#W"/><use transform="matrix(0.05,0,0,0.05,14,0)" xlink:href="#Q"/><use transform="matrix(0.05,0,0,0.05,24,0)" xlink:href="#W"/><use transform="matrix(0.05,0,0,0.05,29,0)" xlink:href="#ap"/><use transform="matrix(0.05,0,0,0.05,39,0)" xlink:href="#ad"/></g><path fill="#fff" d="M115-194c53 0 69 39 70 98 0 66-23 100-70 100C84 3 66-7 56-30L54 0H23l1-261h32v101c10-23 28-34 59-34zm-8 174c40 0 45-34 45-75 0-40-5-75-45-74-42 0-51 32-51 76 0 43 10 73 51 73" id="av"/><g id="D"><use transform="matrix(0.05,0,0,0.05,0,0)" xlink:href="#av"/><use transform="matrix(0.05,0,0,0.05,10,0)" xlink:href="#ae"/><use transform="matrix(0.05,0,0,0.05,20,0)" xlink:href="#ae"/><use transform="matrix(0.05,0,0,0.05,30,0)" xlink:href="#ac"/><use transform="matrix(0.05,0,0,0.05,33.95,0)" xlink:href="#Y"/><use transform="matrix(0.05,0,0,0.05,43.95,0)" xlink:href="#Q"/><use transform="matrix(0.05,0,0,0.05,53.95,0)" xlink:href="#X"/></g><path fill="#fff" d="M30 0v-248h33v221h125V0H30" id="aw"/><g id="E"><use transform="matrix(0.05,0,0,0.05,0,0)" xlink:href="#aw"/><use transform="matrix(0.05,0,0,0.05,10,0)" xlink:href="#S"/><use transform="matrix(0.05,0,0,0.05,13.949999999999998,0)" xlink:href="#an"/><use transform="matrix(0.05,0,0,0.05,22.95,0)" xlink:href="#Y"/><use transform="matrix(0.05,0,0,0.05,32.95,0)" xlink:href="#ad"/><use transform="matrix(0.05,0,0,0.05,41.95,0)" xlink:href="#am"/><use transform="matrix(0.05,0,0,0.05,51.95,0)" xlink:href="#af"/><use transform="matrix(0.05,0,0,0.05,63.95,0)" xlink:href="#ae"/><use transform="matrix(0.05,0,0,0.05,73.95,0)" xlink:href="#ad"/><use transform="matrix(0.05,0,0,0.05,82.95,0)" xlink:href="#W"/><use transform="matrix(0.05,0,0,0.05,87.95,0)" xlink:href="#ad"/></g><g id="F"><use transform="matrix(0.05,0,0,0.05,0,0)" xlink:href="#aw"/><use transform="matrix(0.05,0,0,0.05,10,0)" xlink:href="#S"/><use transform="matrix(0.05,0,0,0.05,13.949999999999998,0)" xlink:href="#an"/><use transform="matrix(0.05,0,0,0.05,22.95,0)" xlink:href="#Y"/><use transform="matrix(0.05,0,0,0.05,32.95,0)" xlink:href="#ad"/><use transform="matrix(0.05,0,0,0.05,41.95,0)" xlink:href="#am"/><use transform="matrix(0.05,0,0,0.05,51.95,0)" xlink:href="#as"/><use transform="matrix(0.05,0,0,0.05,64.9,0)" xlink:href="#ae"/><use transform="matrix(0.05,0,0,0.05,74.9,0)" xlink:href="#ai"/><use transform="matrix(0.05,0,0,0.05,89.85000000000001,0)" xlink:href="#ai"/><use transform="matrix(0.05,0,0,0.05,104.80000000000001,0)" xlink:href="#Y"/><use transform="matrix(0.05,0,0,0.05,114.80000000000001,0)" xlink:href="#X"/><use transform="matrix(0.05,0,0,0.05,124.80000000000001,0)" xlink:href="#W"/><use transform="matrix(0.05,0,0,0.05,129.8,0)" xlink:href="#ad"/></g><g id="G"><use transform="matrix(0.05,0,0,0.05,0,0)" xlink:href="#aq"/><use transform="matrix(0.05,0,0,0.05,9,0)" xlink:href="#ae"/><use transform="matrix(0.05,0,0,0.05,19,0)" xlink:href="#ai"/><use transform="matrix(0.05,0,0,0.05,33.95,0)" xlink:href="#ai"/><use transform="matrix(0.05,0,0,0.05,48.900000000000006,0)" xlink:href="#Y"/><use transform="matrix(0.05,0,0,0.05,58.900000000000006,0)" xlink:href="#X"/><use transform="matrix(0.05,0,0,0.05,68.9,0)" xlink:href="#W"/><use transform="matrix(0.05,0,0,0.05,73.9,0)" xlink:href="#am"/><use transform="matrix(0.05,0,0,0.05,83.9,0)" xlink:href="#S"/><use transform="matrix(0.05,0,0,0.05,87.85000000000001,0)" xlink:href="#T"/></g></defs></g></svg>